<?xml version="1.0" encoding="UTF-8" standalone="no"?>
<!DOCTYPE svg PUBLIC "-//W3C//DTD SVG 1.1//EN" "http://www.w3.org/Graphics/SVG/1.1/DTD/svg11.dtd">
<svg xmlns:xl="http://www.w3.org/1999/xlink" xmlns:dc="http://purl.org/dc/elements/1.1/" version="1.1" xmlns="http://www.w3.org/2000/svg" viewBox="23.5 7.5 593 49" width="593" height="49">
  <defs/>
  <metadata> Produced by OmniGraffle 7.18.5\n2021-06-01 20:42:23 +0000</metadata>
  <g id="Canvas_1" fill="none" stroke="none" stroke-dasharray="none" fill-opacity="1" stroke-opacity="1">
    <title>Canvas 1</title>
    <g id="Canvas_1_Layer_1">
      <title>Layer 1</title>
      <g id="Group_3">
        <g id="Graphic_24">
          <path d="M 24 16.00016 C 24 11.581794 27.581793 8 32.00016 8 L 263.99986 8 C 266.12163 8 268.1565 8.842872 269.6568 10.343193 C 271.15715 11.843513 272 13.878386 272 16.00016 L 272 47.99984 C 272 52.418206 268.41823 56 263.99986 56 L 32.00016 56 C 27.581792 56 24 52.418205 24 47.99984 Z" fill="#efefef"/>
        </g>
        <g id="Graphic_23">
          <path d="M 24 16.00016 C 24 11.581794 27.581793 8 32.00016 8 L 263.99986 8 C 266.12163 8 268.1565 8.842872 269.6568 10.343193 C 271.15715 11.843513 272 13.878386 272 16.00016 L 272 47.99984 C 272 52.418206 268.41823 56 263.99986 56 L 32.00016 56 C 27.581792 56 24 52.418205 24 47.99984 Z" stroke="black" stroke-linecap="butt" stroke-linejoin="round" stroke-width="1"/>
        </g>
        <g id="Graphic_22">
          <line x1="224" y1="8" x2="224" y2="56" fill="black" fill-opacity="0"/>
        </g>
        <g id="Graphic_21">
          <line x1="224" y1="8" x2="224" y2="56" stroke="black" stroke-linecap="butt" stroke-linejoin="round" stroke-width="1"/>
        </g>
        <g id="Graphic_20">
          <rect x="232" y="16" width="32" height="32" fill="black" fill-opacity="0"/>
        </g>
        <g id="Group_18">
          <g id="Graphic_19"/>
        </g>
        <g id="Graphic_17">
          <line x1="288" y1="32" x2="352" y2="32" fill="black" fill-opacity="0"/>
        </g>
        <g id="Graphic_16">
          <line x1="288" y1="32" x2="340" y2="32" stroke="black" stroke-linecap="butt" stroke-linejoin="round" stroke-width="2"/>
        </g>
        <g id="Graphic_15">
          <path d="M 340 35.303463 L 349.0762 32 L 340 28.696535 Z" fill="black"/>
          <path d="M 340 35.303463 L 349.0762 32 L 340 28.696535 Z" stroke="black" stroke-linecap="butt" stroke-linejoin="round" stroke-width="2"/>
        </g>
        <g id="Graphic_14">
          <path d="M 368 16.00016 C 368 11.581794 371.5818 8 376.00015 8 L 607.9998 8 C 610.12164 8 612.1565 8.842872 613.6568 10.343193 C 615.1571 11.843513 616 13.878386 616 16.00016 L 616 47.99984 C 616 52.418206 612.4182 56 607.9998 56 L 376.00015 56 C 371.5818 56 368 52.418205 368 47.99984 Z" fill="#efefef"/>
        </g>
        <g id="Graphic_13">
          <path d="M 368 16.00016 C 368 11.581794 371.5818 8 376.00015 8 L 607.9998 8 C 610.12164 8 612.1565 8.842872 613.6568 10.343193 C 615.1571 11.843513 616 13.878386 616 16.00016 L 616 47.99984 C 616 52.418206 612.4182 56 607.9998 56 L 376.00015 56 C 371.5818 56 368 52.418205 368 47.99984 Z" stroke="black" stroke-linecap="butt" stroke-linejoin="round" stroke-width="1"/>
        </g>
        <g id="Graphic_12">
          <line x1="568" y1="8" x2="568" y2="56" fill="black" fill-opacity="0"/>
        </g>
        <g id="Graphic_11">
          <line x1="568" y1="8" x2="568" y2="56" stroke="black" stroke-linecap="butt" stroke-linejoin="round" stroke-width="1"/>
        </g>
        <g id="Graphic_10">
          <rect x="576" y="16" width="32" height="32" fill="black" fill-opacity="0"/>
        </g>
        <g id="Group_8">
          <g id="Graphic_9"/>
        </g>
        <g id="Graphic_7">
          <rect x="24" y="8" width="200" height="48" fill="black" fill-opacity="0"/>
        </g>
        <g id="Graphic_6">
          <path d="M 75.54238 34.204376 C 75.54238 34.766876 75.33405 35.240834 74.91738 35.62625 C 74.51113 36.011668 74.04759 36.204376 73.526755 36.204376 C 72.995505 36.204376 72.526755 36.011668 72.120505 35.62625 C 71.714255 35.240834 71.51113 34.766876 71.51113 34.204376 C 71.51113 33.66271 71.70905 33.19396 72.10488 32.798126 C 72.50071 32.391876 72.97467 32.18875 73.526755 32.18875 C 74.06842 32.18875 74.53717 32.391876 74.933005 32.798126 C 75.339255 33.19396 75.54238 33.66271 75.54238 34.204376 Z M 82.22132 34.204376 C 82.22132 34.766876 82.01299 35.240834 81.59632 35.62625 C 81.19007 36.011668 80.72653 36.204376 80.205695 36.204376 C 79.674445 36.204376 79.205695 36.011668 78.799445 35.62625 C 78.393195 35.240834 78.19007 34.766876 78.19007 34.204376 C 78.19007 33.66271 78.38799 33.19396 78.78382 32.798126 C 79.17965 32.391876 79.65361 32.18875 80.205695 32.18875 C 80.74736 32.18875 81.21611 32.391876 81.611945 32.798126 C 82.018195 33.19396 82.22132 33.66271 82.22132 34.204376 Z M 88.90026 34.204376 C 88.90026 34.766876 88.69193 35.240834 88.27526 35.62625 C 87.86901 36.011668 87.40547 36.204376 86.88464 36.204376 C 86.35338 36.204376 85.88464 36.011668 85.47838 35.62625 C 85.07214 35.240834 84.86901 34.766876 84.86901 34.204376 C 84.86901 33.66271 85.06693 33.19396 85.46276 32.798126 C 85.85859 32.391876 86.33255 32.18875 86.88464 32.18875 C 87.4263 32.18875 87.89505 32.391876 88.29088 32.798126 C 88.69714 33.19396 88.90026 33.66271 88.90026 34.204376 Z M 95.58001 34.81375 L 95.58001 33.595 L 100.04876 33.595 L 100.04876 34.81375 Z M 110.8027 34.204376 C 110.8027 34.766876 110.59436 35.240834 110.1777 35.62625 C 109.77145 36.011668 109.3079 36.204376 108.78707 36.204376 C 108.25582 36.204376 107.78707 36.011668 107.38082 35.62625 C 106.97457 35.240834 106.77145 34.766876 106.77145 34.204376 C 106.77145 33.66271 106.96936 33.19396 107.3652 32.798126 C 107.76103 32.391876 108.23499 32.18875 108.78707 32.18875 C 109.32874 32.18875 109.79749 32.391876 110.19332 32.798126 C 110.59957 33.19396 110.8027 33.66271 110.8027 34.204376 Z M 117.48164 34.204376 C 117.48164 34.766876 117.2733 35.240834 116.85664 35.62625 C 116.45039 36.011668 115.98684 36.204376 115.46601 36.204376 C 114.93476 36.204376 114.46601 36.011668 114.05976 35.62625 C 113.65351 35.240834 113.45039 34.766876 113.45039 34.204376 C 113.45039 33.66271 113.6483 33.19396 114.04414 32.798126 C 114.43997 32.391876 114.91393 32.18875 115.46601 32.18875 C 116.00768 32.18875 116.47643 32.391876 116.87226 32.798126 C 117.27851 33.19396 117.48164 33.66271 117.48164 34.204376 Z M 124.16138 34.81375 L 124.16138 33.595 L 128.63013 33.595 L 128.63013 34.81375 Z M 138.97781 38.93875 C 137.91531 38.93875 137.00906 38.740834 136.25906 38.345 C 135.50906 37.93875 134.94135 37.454376 134.55594 36.891876 L 135.46219 35.923126 C 135.82677 36.402293 136.31115 36.798126 136.91531 37.110626 C 137.51948 37.41271 138.19135 37.56375 138.93094 37.56375 C 139.83719 37.56375 140.54552 37.355418 141.05594 36.93875 C 141.57677 36.522084 141.83719 35.954376 141.83719 35.235626 C 141.83719 34.496043 141.56635 33.94396 141.02469 33.579376 C 140.49344 33.214793 139.73302 33.0325 138.74344 33.0325 L 137.97781 33.0325 L 137.46219 33.048126 L 137.46219 31.62625 L 138.00906 31.641874 L 138.74344 31.641874 C 139.63927 31.641874 140.3424 31.459582 140.85281 31.095 C 141.37365 30.730416 141.63406 30.230416 141.63406 29.595 C 141.63406 28.959582 141.37365 28.449166 140.85281 28.06375 C 140.3424 27.667916 139.67573 27.47 138.85281 27.47 C 137.60281 27.47 136.50906 27.975207 135.57156 28.985624 L 134.71219 28.016874 C 135.76427 26.735624 137.18615 26.095 138.97781 26.095 C 140.23823 26.095 141.25385 26.397082 142.02469 27.00125 C 142.79552 27.595 143.18094 28.397082 143.18094 29.4075 C 143.18094 30.1575 142.92573 30.798124 142.41531 31.329374 C 141.91531 31.85021 141.2799 32.173126 140.50906 32.298126 C 141.29031 32.360626 141.96219 32.683543 142.52469 33.266876 C 143.08719 33.839793 143.36844 34.53771 143.36844 35.360626 C 143.36844 36.44396 142.96219 37.31375 142.14969 37.97 C 141.3476 38.615834 140.29031 38.93875 138.97781 38.93875 Z M 150.10373 38.93875 C 148.66623 38.93875 147.51519 38.345 146.6506 37.1575 C 145.78602 35.97 145.35373 34.417918 145.35373 32.50125 C 145.35373 30.574166 145.79123 29.02729 146.66623 27.860624 C 147.54123 26.68354 148.68706 26.095 150.10373 26.095 C 151.07248 26.095 151.91623 26.37104 152.63498 26.923124 C 153.35373 27.475207 153.90581 28.24604 154.29123 29.235624 C 154.67665 30.21479 154.86935 31.303333 154.86935 32.50125 C 154.86935 33.699168 154.67665 34.798126 154.29123 35.798126 C 153.90581 36.78771 153.35894 37.558543 152.6506 38.110626 C 151.94227 38.66271 151.09331 38.93875 150.10373 38.93875 Z M 150.10373 37.56375 C 151.10373 37.56375 151.87977 37.115834 152.43185 36.22 C 152.99435 35.324168 153.2756 34.084584 153.2756 32.50125 C 153.2756 30.917916 152.99435 29.68354 152.43185 28.798124 C 151.87977 27.912707 151.10373 27.47 150.10373 27.47 C 149.11415 27.47 148.3381 27.912707 147.7756 28.798124 C 147.2131 29.68354 146.93185 30.917916 146.93185 32.50125 C 146.93185 34.084584 147.2079 35.324168 147.75998 36.22 C 148.32248 37.115834 149.10373 37.56375 150.10373 37.56375 Z M 161.42761 38.93875 C 159.52136 38.93875 158.06303 38.277293 157.05261 36.954376 L 158.00574 35.923126 C 158.8599 37.016876 160.00053 37.56375 161.42761 37.56375 C 162.26095 37.56375 162.94845 37.31375 163.49011 36.81375 C 164.03178 36.303334 164.30261 35.66271 164.30261 34.891876 C 164.30261 34.110626 164.0422 33.47 163.52136 32.97 C 163.01095 32.459584 162.32345 32.204376 161.45886 32.204376 C 160.34428 32.204376 159.38595 32.60021 158.58386 33.391876 L 157.44324 32.985626 L 157.44324 26.2825 L 165.05261 26.2825 L 165.05261 27.6575 L 158.99011 27.6575 L 158.99011 31.985624 C 159.2922 31.68354 159.69324 31.423124 160.19324 31.204374 C 160.69324 30.975207 161.26095 30.860624 161.89636 30.860624 C 163.03178 30.860624 163.97449 31.230416 164.72449 31.97 C 165.47449 32.699167 165.84949 33.6575 165.84949 34.845 C 165.84949 36.074168 165.44324 37.06375 164.63074 37.81375 C 163.81824 38.56375 162.75053 38.93875 161.42761 38.93875 Z M 172.43481 38.93875 C 170.52856 38.93875 169.07023 38.277293 168.05981 36.954376 L 169.01294 35.923126 C 169.8671 37.016876 171.00773 37.56375 172.43481 37.56375 C 173.26815 37.56375 173.95565 37.31375 174.49731 36.81375 C 175.03898 36.303334 175.30981 35.66271 175.30981 34.891876 C 175.30981 34.110626 175.0494 33.47 174.52856 32.97 C 174.01815 32.459584 173.33065 32.204376 172.46606 32.204376 C 171.35148 32.204376 170.39315 32.60021 169.59106 33.391876 L 168.45044 32.985626 L 168.45044 26.2825 L 176.05981 26.2825 L 176.05981 27.6575 L 169.99731 27.6575 L 169.99731 31.985624 C 170.2994 31.68354 170.70044 31.423124 171.20044 31.204374 C 171.70044 30.975207 172.26815 30.860624 172.90356 30.860624 C 174.03898 30.860624 174.98169 31.230416 175.73169 31.97 C 176.48169 32.699167 176.85669 33.6575 176.85669 34.845 C 176.85669 36.074168 176.45044 37.06375 175.63794 37.81375 C 174.82544 38.56375 173.75773 38.93875 172.43481 38.93875 Z" fill="black"/>
        </g>
        <g id="Graphic_5">
          <rect x="368" y="8" width="200" height="48" fill="black" fill-opacity="0"/>
        </g>
        <g id="Graphic_4">
          <path d="M 411.255 38.72 L 411.255 28.329373 L 409.255 30.438748 L 408.3175 29.485623 L 411.42688 26.282498 L 412.80188 26.282498 L 412.80188 38.72 Z M 415.25134 38.72 L 415.25134 37.485625 C 417.44925 35.75646 418.95446 34.50125 419.76696 33.72 C 420.5899 32.928333 421.19405 32.22 421.57946 31.594998 C 421.9649 30.95958 422.1576 30.344998 422.1576 29.751248 C 422.1576 29.063748 421.9232 28.511665 421.45446 28.094998 C 420.9857 27.67833 420.3555 27.469998 419.56384 27.469998 C 418.1159 27.469998 416.9909 27.99083 416.18884 29.032498 L 415.2357 28.048123 C 415.7149 27.412706 416.33467 26.92833 417.0951 26.594998 C 417.8659 26.261665 418.68884 26.094998 419.56384 26.094998 C 420.77217 26.094998 421.77217 26.42833 422.56384 27.094998 C 423.3555 27.751248 423.75134 28.636665 423.75134 29.751248 C 423.75134 30.751248 423.32425 31.80854 422.4701 32.923125 C 421.6159 34.03771 420.0274 35.511667 417.70446 37.345 L 423.7982 37.345 L 423.7982 38.72 Z M 428.54934 38.72 L 428.54934 28.329373 L 426.54934 30.438748 L 425.61184 29.485623 L 428.7212 26.282498 L 430.0962 26.282498 L 430.0962 38.72 Z M 436.92147 34.81375 L 436.92147 33.595 L 441.3902 33.595 L 441.3902 34.81375 Z M 452.19104 38.93875 C 450.8577 38.93875 449.7796 38.62625 448.95666 38.00125 C 448.14416 37.365833 447.7379 36.553333 447.7379 35.56375 C 447.7379 34.845 448.00354 34.19396 448.5348 33.610625 C 449.06604 33.016875 449.79 32.579375 450.70666 32.298125 C 449.8733 32.068957 449.20145 31.693956 448.69104 31.173123 C 448.19104 30.65229 447.94104 30.032498 447.94104 29.313748 C 447.94104 28.344998 448.33687 27.568956 449.12854 26.985623 C 449.9306 26.391873 450.95145 26.094998 452.19104 26.094998 C 453.45145 26.094998 454.4775 26.391873 455.26916 26.985623 C 456.07124 27.579373 456.4723 28.355415 456.4723 29.313748 C 456.4723 30.02208 456.2275 30.641873 455.7379 31.173123 C 455.2483 31.693956 454.56604 32.068957 453.69104 32.298125 C 454.5973 32.55854 455.31604 32.985625 455.8473 33.579375 C 456.38895 34.173125 456.6598 34.834583 456.6598 35.56375 C 456.6598 36.574167 456.2327 37.391875 455.37854 38.016875 C 454.5348 38.63146 453.4723 38.93875 452.19104 38.93875 Z M 452.19104 31.673123 C 454.00354 31.30854 454.9098 30.58979 454.9098 29.516873 C 454.9098 28.912706 454.6546 28.423123 454.14416 28.048123 C 453.64416 27.662706 452.9931 27.469998 452.19104 27.469998 C 451.39937 27.469998 450.7483 27.662706 450.2379 28.048123 C 449.7379 28.423123 449.4879 28.912706 449.4879 29.516873 C 449.4879 30.58979 450.38895 31.30854 452.19104 31.673123 Z M 452.19104 37.56375 C 453.00354 37.56375 453.69104 37.365833 454.25354 36.97 C 454.81604 36.574167 455.0973 36.048125 455.0973 35.391875 C 455.0973 34.80854 454.8108 34.28771 454.2379 33.829375 C 453.6754 33.37104 452.9931 33.08979 452.19104 32.985625 C 451.4098 33.08979 450.7275 33.37104 450.14416 33.829375 C 449.57124 34.27729 449.2848 34.798125 449.2848 35.391875 C 449.2848 36.048125 449.56604 36.574167 450.12854 36.97 C 450.69104 37.365833 451.37854 37.56375 452.19104 37.56375 Z M 463.3116 38.93875 C 461.8741 38.93875 460.72304 38.345 459.85845 37.1575 C 458.99387 35.97 458.5616 34.417917 458.5616 32.50125 C 458.5616 30.574165 458.9991 29.02729 459.8741 27.860623 C 460.7491 26.68354 461.8949 26.094998 463.3116 26.094998 C 464.28033 26.094998 465.1241 26.37104 465.84283 26.923123 C 466.5616 27.475206 467.11366 28.24604 467.4991 29.235623 C 467.8845 30.21479 468.0772 31.303332 468.0772 32.50125 C 468.0772 33.699167 467.8845 34.798125 467.4991 35.798125 C 467.11366 36.78771 466.5668 37.55854 465.85845 38.110625 C 465.1501 38.66271 464.30116 38.93875 463.3116 38.93875 Z M 463.3116 37.56375 C 464.3116 37.56375 465.0876 37.115833 465.6397 36.22 C 466.2022 35.324167 466.48345 34.084583 466.48345 32.50125 C 466.48345 30.917915 466.2022 29.68354 465.6397 28.798123 C 465.0876 27.912706 464.3116 27.469998 463.3116 27.469998 C 462.322 27.469998 461.54595 27.912706 460.98345 28.798123 C 460.42095 29.68354 460.1397 30.917915 460.1397 32.50125 C 460.1397 34.084583 460.41575 35.324167 460.96783 36.22 C 461.53033 37.115833 462.3116 37.56375 463.3116 37.56375 Z M 474.4019 34.81375 L 474.4019 33.595 L 478.87063 33.595 L 478.87063 34.81375 Z M 489.2183 38.93875 C 488.1558 38.93875 487.24957 38.740833 486.49957 38.345 C 485.74957 37.93875 485.18186 37.454375 484.79644 36.891875 L 485.7027 35.923125 C 486.0673 36.40229 486.55165 36.798125 487.1558 37.110625 C 487.76 37.41271 488.43186 37.56375 489.17144 37.56375 C 490.0777 37.56375 490.786 37.355417 491.29644 36.93875 C 491.8173 36.522083 492.0777 35.954375 492.0777 35.235625 C 492.0777 34.49604 491.80686 33.94396 491.2652 33.579375 C 490.73394 33.21479 489.9735 33.0325 488.98394 33.0325 L 488.2183 33.0325 L 487.7027 33.048125 L 487.7027 31.626248 L 488.24957 31.641873 L 488.98394 31.641873 C 489.8798 31.641873 490.5829 31.45958 491.0933 31.094998 C 491.61415 30.730415 491.87457 30.230415 491.87457 29.594998 C 491.87457 28.95958 491.61415 28.449165 491.0933 28.063748 C 490.5829 27.667915 489.91623 27.469998 489.0933 27.469998 C 487.8433 27.469998 486.74957 27.975206 485.81207 28.985623 L 484.9527 28.016873 C 486.0048 26.735623 487.42665 26.094998 489.2183 26.094998 C 490.47873 26.094998 491.49436 26.39708 492.2652 27.001248 C 493.036 27.594998 493.42144 28.39708 493.42144 29.407498 C 493.42144 30.157498 493.16623 30.798123 492.6558 31.329373 C 492.1558 31.850208 491.5204 32.173125 490.74957 32.298125 C 491.5308 32.360625 492.2027 32.68354 492.7652 33.266875 C 493.3277 33.83979 493.60894 34.53771 493.60894 35.360625 C 493.60894 36.44396 493.2027 37.31375 492.3902 37.97 C 491.5881 38.615833 490.5308 38.93875 489.2183 38.93875 Z M 500.34423 38.93875 C 498.90673 38.93875 497.7557 38.345 496.8911 37.1575 C 496.0265 35.97 495.59423 34.417917 495.59423 32.50125 C 495.59423 30.574165 496.03173 29.02729 496.90673 27.860623 C 497.78173 26.68354 498.92757 26.094998 500.34423 26.094998 C 501.313 26.094998 502.15673 26.37104 502.8755 26.923123 C 503.59423 27.475206 504.1463 28.24604 504.53173 29.235623 C 504.91715 30.21479 505.10986 31.303332 505.10986 32.50125 C 505.10986 33.699167 504.91715 34.798125 504.53173 35.798125 C 504.1463 36.78771 503.59944 37.55854 502.8911 38.110625 C 502.1828 38.66271 501.3338 38.93875 500.34423 38.93875 Z M 500.34423 37.56375 C 501.34423 37.56375 502.1203 37.115833 502.67236 36.22 C 503.23486 35.324167 503.5161 34.084583 503.5161 32.50125 C 503.5161 30.917915 503.23486 29.68354 502.67236 28.798123 C 502.1203 27.912706 501.34423 27.469998 500.34423 27.469998 C 499.35465 27.469998 498.5786 27.912706 498.0161 28.798123 C 497.4536 29.68354 497.17236 30.917915 497.17236 32.50125 C 497.17236 34.084583 497.4484 35.324167 498.0005 36.22 C 498.563 37.115833 499.34423 37.56375 500.34423 37.56375 Z M 511.6681 38.93875 C 509.76187 38.93875 508.30353 38.27729 507.2931 36.954375 L 508.24624 35.923125 C 509.1004 37.016875 510.24103 37.56375 511.6681 37.56375 C 512.5014 37.56375 513.1889 37.31375 513.7306 36.81375 C 514.27225 36.303333 514.5431 35.66271 514.5431 34.891875 C 514.5431 34.110625 514.28267 33.47 513.76184 32.97 C 513.2514 32.459583 512.5639 32.204375 511.69937 32.204375 C 510.5848 32.204375 509.62645 32.60021 508.82437 33.391875 L 507.68374 32.985625 L 507.68374 26.282498 L 515.2931 26.282498 L 515.2931 27.657498 L 509.2306 27.657498 L 509.2306 31.985623 C 509.5327 31.68354 509.93374 31.423123 510.43374 31.204373 C 510.93374 30.975206 511.50144 30.860623 512.13684 30.860623 C 513.27225 30.860623 514.21496 31.230415 514.96496 31.969998 C 515.71496 32.699166 516.08996 33.6575 516.08996 34.845 C 516.08996 36.074167 515.6837 37.06375 514.8712 37.81375 C 514.0587 38.56375 512.991 38.93875 511.6681 38.93875 Z M 522.6753 38.93875 C 520.76904 38.93875 519.3107 38.27729 518.3003 36.954375 L 519.2534 35.923125 C 520.1076 37.016875 521.2482 37.56375 522.6753 37.56375 C 523.5086 37.56375 524.1961 37.31375 524.7378 36.81375 C 525.27946 36.303333 525.5503 35.66271 525.5503 34.891875 C 525.5503 34.110625 525.2899 33.47 524.76904 32.97 C 524.2586 32.459583 523.5711 32.204375 522.70654 32.204375 C 521.59196 32.204375 520.6336 32.60021 519.83154 33.391875 L 518.6909 32.985625 L 518.6909 26.282498 L 526.3003 26.282498 L 526.3003 27.657498 L 520.2378 27.657498 L 520.2378 31.985623 C 520.5399 31.68354 520.9409 31.423123 521.4409 31.204373 C 521.9409 30.975206 522.5086 30.860623 523.14404 30.860623 C 524.27946 30.860623 525.22216 31.230415 525.97216 31.969998 C 526.72216 32.699166 527.09716 33.6575 527.09716 34.845 C 527.09716 36.074167 526.6909 37.06375 525.8784 37.81375 C 525.0659 38.56375 523.9982 38.93875 522.6753 38.93875 Z" fill="black"/>
        </g>
      </g>
    </g>
  </g>
</svg>
